<svg width="47" height="47" viewBox="0 0 47 47" fill="currentColor" xmlns="http://www.w3.org/2000/svg">
<path d="M22.5208 27.4167C30.6283 27.4167 37.2083 30.4912 37.2083 34.2708V39.1667H7.83334V34.2708C7.83334 30.4912 14.4133 27.4167 22.5208 27.4167ZM35.25 34.2708C35.25 31.5683 29.5513 29.375 22.5208 29.375C15.4904 29.375 9.79168 31.5683 9.79168 34.2708V37.2083H35.25V34.2708ZM22.5208 9.79166C24.3387 9.79166 26.0821 10.5138 27.3675 11.7992C28.6529 13.0846 29.375 14.828 29.375 16.6458C29.375 18.4637 28.6529 20.2071 27.3675 21.4925C26.0821 22.7779 24.3387 23.5 22.5208 23.5C20.703 23.5 18.9596 22.7779 17.6742 21.4925C16.3888 20.2071 15.6667 18.4637 15.6667 16.6458C15.6667 14.828 16.3888 13.0846 17.6742 11.7992C18.9596 10.5138 20.703 9.79166 22.5208 9.79166ZM22.5208 11.75C21.2224 11.75 19.9771 12.2658 19.059 13.184C18.1408 14.1021 17.625 15.3474 17.625 16.6458C17.625 17.9443 18.1408 19.1896 19.059 20.1077C19.9771 21.0259 21.2224 21.5417 22.5208 21.5417C23.8193 21.5417 25.0646 21.0259 25.9827 20.1077C26.9009 19.1896 27.4167 17.9443 27.4167 16.6458C27.4167 15.3474 26.9009 14.1021 25.9827 13.184C25.0646 12.2658 23.8193 11.75 22.5208 11.75Z" fill="#7B5E5E"/>
</svg>
