<svg width="47" height="47" viewBox="0 0 47 47" fill="none" xmlns="http://www.w3.org/2000/svg">
<path d="M31.3333 35.25C32.3721 35.25 33.3683 35.6626 34.1028 36.3972C34.8374 37.1317 35.25 38.1279 35.25 39.1667C35.25 40.2054 34.8374 41.2016 34.1028 41.9362C33.3683 42.6707 32.3721 43.0833 31.3333 43.0833C30.2946 43.0833 29.2984 42.6707 28.5638 41.9362C27.8293 41.2016 27.4167 40.2054 27.4167 39.1667C27.4167 38.1279 27.8293 37.1317 28.5638 36.3972C29.2984 35.6626 30.2946 35.25 31.3333 35.25ZM31.3333 37.2083C30.814 37.2083 30.3159 37.4147 29.9486 37.7819C29.5813 38.1492 29.375 38.6473 29.375 39.1667C29.375 39.686 29.5813 40.1842 29.9486 40.5514C30.3159 40.9187 30.814 41.125 31.3333 41.125C31.8527 41.125 32.3508 40.9187 32.7181 40.5514C33.0854 40.1842 33.2917 39.686 33.2917 39.1667C33.2917 38.6473 33.0854 38.1492 32.7181 37.7819C32.3508 37.4147 31.8527 37.2083 31.3333 37.2083ZM13.7083 35.25C14.7471 35.25 15.7433 35.6626 16.4778 36.3972C17.2124 37.1317 17.625 38.1279 17.625 39.1667C17.625 40.2054 17.2124 41.2016 16.4778 41.9362C15.7433 42.6707 14.7471 43.0833 13.7083 43.0833C12.6696 43.0833 11.6734 42.6707 10.9388 41.9362C10.2043 41.2016 9.79168 40.2054 9.79168 39.1667C9.79168 38.1279 10.2043 37.1317 10.9388 36.3972C11.6734 35.6626 12.6696 35.25 13.7083 35.25ZM13.7083 37.2083C13.189 37.2083 12.6909 37.4147 12.3236 37.7819C11.9563 38.1492 11.75 38.6473 11.75 39.1667C11.75 39.686 11.9563 40.1842 12.3236 40.5514C12.6909 40.9187 13.189 41.125 13.7083 41.125C14.2277 41.125 14.7258 40.9187 15.0931 40.5514C15.4604 40.1842 15.6667 39.686 15.6667 39.1667C15.6667 38.6473 15.4604 38.1492 15.0931 37.7819C14.7258 37.4147 14.2277 37.2083 13.7083 37.2083ZM35.25 11.75H8.36209L13.3558 23.5H29.375C30.0213 23.5 30.5892 23.1867 30.9417 22.7167L36.8167 14.8833C37.0713 14.5504 37.2083 14.1392 37.2083 13.7083C37.2083 13.189 37.002 12.6908 36.6348 12.3236C36.2675 11.9563 35.7694 11.75 35.25 11.75ZM29.375 25.4583H13.4538L11.9458 28.5133L11.75 29.375C11.75 29.8944 11.9563 30.3925 12.3236 30.7597C12.6909 31.127 13.189 31.3333 13.7083 31.3333H35.25V33.2917H13.7083C12.6696 33.2917 11.6734 32.879 10.9388 32.1445C10.2043 31.41 9.79168 30.4138 9.79168 29.375C9.79109 28.7105 9.95957 28.0568 10.2813 27.4754L11.6913 24.5967L4.58251 7.83333H1.95834V5.875H5.87501L7.53959 9.79167H35.25C36.2888 9.79167 37.285 10.2043 38.0195 10.9388C38.754 11.6733 39.1667 12.6696 39.1667 13.7083C39.1667 14.6875 38.8338 15.51 38.2854 16.1758L32.5867 23.7937C31.8817 24.7925 30.7067 25.4583 29.375 25.4583Z" fill="#7B5E5E"/>
</svg>
