<?xml version="1.0" encoding="UTF-8"?>
<svg id="Layer_1" data-name="Layer 1" xmlns="http://www.w3.org/2000/svg" viewBox="0 0 33 19.11">
  <defs>
    <style>
      .cls-1 {
        fill: #7b5e5e;
      }
    </style>
  </defs>
  <g>
    <path class="cls-1" d="M16.47,7.34l3.75,2.53c0-.09.03-.18.03-.27,0-2.07-1.68-3.75-3.75-3.75-.28,0-.55.04-.81.09.43.33.72.83.79,1.4Z"/>
    <path class="cls-1" d="M15.26,9.44c-.25.11-.52.16-.8.16-.66,0-1.25-.32-1.62-.81-.06.26-.09.53-.09.81,0,2.07,1.68,3.75,3.75,3.75,1.09,0,2.07-.48,2.76-1.22l-3.99-2.69Z"/>
  </g>
  <rect class="cls-1" x="-.2" y="8.95" width="32.41" height="1.21" transform="translate(8.07 -7.31) rotate(33.96)"/>
  <g>
    <path class="cls-1" d="M20.99,13.3c-1.07,1.3-2.68,2.12-4.49,2.12-3.21,0-5.82-2.6-5.82-5.82,0-1,.25-1.95.7-2.77l-5.51-3.71C2.29,4.67,0,7,0,9.6c0,4.68,7.39,8.48,16.5,8.48,3.48,0,6.7-.56,9.36-1.5l-4.87-3.28Z"/>
    <path class="cls-1" d="M16.5,1.12c-2.81,0-5.46.36-7.78,1l4.25,2.86c.98-.75,2.2-1.2,3.53-1.2,3.21,0,5.82,2.6,5.82,5.82,0,.53-.08,1.05-.21,1.54l6.36,4.29c2.8-1.52,4.53-3.57,4.53-5.82,0-4.68-7.39-8.48-16.5-8.48Z"/>
  </g>
</svg>