<svg width="47" height="47" viewBox="0 0 47 47" fill="none" xmlns="http://www.w3.org/2000/svg">
<path d="M35.25 30.8438H38.1875V38.1875H35.25V30.8438ZM29.375 23.5H32.3125V38.1875H29.375V23.5ZM16.1562 38.1875C14.2093 38.1852 12.3427 37.4107 10.966 36.034C9.5893 34.6573 8.81483 32.7907 8.8125 30.8438H11.75C11.75 31.7152 12.0084 32.5671 12.4926 33.2917C12.9768 34.0163 13.6649 34.5811 14.4701 34.9146C15.2752 35.2481 16.1611 35.3354 17.0159 35.1653C17.8706 34.9953 18.6557 34.5757 19.2719 33.9594C19.8882 33.3432 20.3078 32.5581 20.4778 31.7034C20.6479 30.8486 20.5606 29.9627 20.2271 29.1576C19.8936 28.3524 19.3288 27.6643 18.6042 27.1801C17.8796 26.6959 17.0277 26.4375 16.1562 26.4375V23.5C18.1039 23.5 19.9718 24.2737 21.3491 25.6509C22.7263 27.0282 23.5 28.8961 23.5 30.8438C23.5 32.7914 22.7263 34.6593 21.3491 36.0366C19.9718 37.4138 18.1039 38.1875 16.1562 38.1875Z" fill="#7B5E5E"/>
<path d="M41.125 2.9375H5.875C5.09593 2.9375 4.34876 3.24699 3.79787 3.79787C3.24699 4.34876 2.9375 5.09593 2.9375 5.875V41.125C2.9375 41.9041 3.24699 42.6512 3.79787 43.2021C4.34876 43.753 5.09593 44.0625 5.875 44.0625H41.125C41.9037 44.0613 42.6502 43.7515 43.2008 43.2008C43.7515 42.6502 44.0613 41.9037 44.0625 41.125V5.875C44.0625 5.09593 43.753 4.34876 43.2021 3.79787C42.6512 3.24699 41.9041 2.9375 41.125 2.9375ZM41.125 16.1562H20.5625V5.875H41.125V16.1562ZM17.625 5.875V16.1562H5.875V5.875H17.625ZM5.875 41.125V19.0938H41.125L41.1279 41.125H5.875Z" fill="#7B5E5E"/>
</svg>
