<svg width="40" height="40" viewBox="0 0 40 40" fill="none" xmlns="http://www.w3.org/2000/svg">
<path d="M11.6667 11.6667H10C9.11597 11.6667 8.26812 12.0178 7.643 12.643C7.01788 13.2681 6.66669 14.1159 6.66669 15V30C6.66669 30.884 7.01788 31.7319 7.643 32.357C8.26812 32.9821 9.11597 33.3333 10 33.3333H25C25.8841 33.3333 26.7319 32.9821 27.357 32.357C27.9822 31.7319 28.3334 30.884 28.3334 30V28.3333" stroke="black" stroke-width="2" stroke-linecap="round" stroke-linejoin="round"/>
<path d="M26.6667 8.33333L31.6667 13.3333M33.975 10.975C34.6314 10.3186 35.0002 9.4283 35.0002 8.5C35.0002 7.57169 34.6314 6.68141 33.975 6.025C33.3186 5.36858 32.4283 4.99982 31.5 4.99982C30.5717 4.99982 29.6814 5.36858 29.025 6.025L15 20V25H20L33.975 10.975Z" stroke="black" stroke-width="2" stroke-linecap="round" stroke-linejoin="round"/>
</svg>
