<?xml version="1.0" encoding="UTF-8"?>
<svg id="Layer_1" data-name="Layer 1" xmlns="http://www.w3.org/2000/svg" viewBox="0 0 33 16.96">
  <defs>
    <style>
      .cls-1 {
        fill: #7b5e5e;
      }
    </style>
  </defs>
  <path class="cls-1" d="M16.5,0C7.39,0,0,3.8,0,8.48s7.39,8.48,16.5,8.48,16.5-3.8,16.5-8.48S25.61,0,16.5,0ZM16.5,14.3c-3.21,0-5.82-2.6-5.82-5.82s2.6-5.82,5.82-5.82,5.82,2.6,5.82,5.82-2.6,5.82-5.82,5.82Z"/>
  <path class="cls-1" d="M16.5,4.73c-.28,0-.55.04-.81.09.49.37.81.96.81,1.62,0,1.13-.91,2.04-2.04,2.04-.66,0-1.25-.32-1.62-.81-.06.26-.09.53-.09.81,0,2.07,1.68,3.75,3.75,3.75s3.75-1.68,3.75-3.75-1.68-3.75-3.75-3.75Z"/>
</svg>