<svg width="47" height="47" viewBox="0 0 47 47" fill="none" xmlns="http://www.w3.org/2000/svg">
<path d="M6.71429 8.8125C6.71429 7.36565 7.28905 5.97806 8.31213 4.95498C9.33521 3.93191 10.7228 3.35715 12.1697 3.35715H34.8304C36.2772 3.35715 37.6648 3.93191 38.6879 4.95498C39.711 5.97806 40.2857 7.36565 40.2857 8.8125V29.1719C40.0832 29.3062 39.8924 29.4628 39.7133 29.6419L37.7679 31.5874V8.8125C37.7679 8.03343 37.4584 7.28627 36.9075 6.73538C36.3566 6.18449 35.6094 5.875 34.8304 5.875H12.1697C11.3906 5.875 10.6434 6.18449 10.0925 6.73538C9.54164 7.28627 9.23215 8.03343 9.23215 8.8125V38.1875C9.23215 39.809 10.5482 41.125 12.1697 41.125H25.7124L28.2302 43.6429H12.1697C10.7228 43.6429 9.33521 43.0681 8.31213 42.045C7.28905 41.0219 6.71429 39.6344 6.71429 38.1875V8.8125ZM17.625 14.6875C17.625 15.244 17.4039 15.7777 17.0105 16.1712C16.617 16.5647 16.0833 16.7857 15.5268 16.7857C14.9703 16.7857 14.4366 16.5647 14.0431 16.1712C13.6496 15.7777 13.4286 15.244 13.4286 14.6875C13.4286 14.131 13.6496 13.5973 14.0431 13.2038C14.4366 12.8104 14.9703 12.5893 15.5268 12.5893C16.0833 12.5893 16.617 12.8104 17.0105 13.2038C17.4039 13.5973 17.625 14.131 17.625 14.6875ZM15.5268 25.5982C16.0833 25.5982 16.617 25.3772 17.0105 24.9837C17.4039 24.5902 17.625 24.0565 17.625 23.5C17.625 22.9435 17.4039 22.4098 17.0105 22.0163C16.617 21.6229 16.0833 21.4018 15.5268 21.4018C14.9703 21.4018 14.4366 21.6229 14.0431 22.0163C13.6496 22.4098 13.4286 22.9435 13.4286 23.5C13.4286 24.0565 13.6496 24.5902 14.0431 24.9837C14.4366 25.3772 14.9703 25.5982 15.5268 25.5982ZM15.5268 34.4107C16.0833 34.4107 16.617 34.1897 17.0105 33.7962C17.4039 33.4027 17.625 32.869 17.625 32.3125C17.625 31.756 17.4039 31.2223 17.0105 30.8288C16.617 30.4353 16.0833 30.2143 15.5268 30.2143C14.9703 30.2143 14.4366 30.4353 14.0431 30.8288C13.6496 31.2223 13.4286 31.756 13.4286 32.3125C13.4286 32.869 13.6496 33.4027 14.0431 33.7962C14.4366 34.1897 14.9703 34.4107 15.5268 34.4107ZM21.4018 13.4286C21.0679 13.4286 20.7477 13.5612 20.5116 13.7973C20.2755 14.0334 20.1429 14.3536 20.1429 14.6875C20.1429 15.0214 20.2755 15.3416 20.5116 15.5777C20.7477 15.8138 21.0679 15.9464 21.4018 15.9464H32.3125C32.6464 15.9464 32.9666 15.8138 33.2027 15.5777C33.4388 15.3416 33.5714 15.0214 33.5714 14.6875C33.5714 14.3536 33.4388 14.0334 33.2027 13.7973C32.9666 13.5612 32.6464 13.4286 32.3125 13.4286H21.4018ZM20.1429 23.5C20.1429 23.1661 20.2755 22.8459 20.5116 22.6098C20.7477 22.3737 21.0679 22.2411 21.4018 22.2411H32.3125C32.6464 22.2411 32.9666 22.3737 33.2027 22.6098C33.4388 22.8459 33.5714 23.1661 33.5714 23.5C33.5714 23.8339 33.4388 24.1541 33.2027 24.3902C32.9666 24.6263 32.6464 24.7589 32.3125 24.7589H21.4018C21.0679 24.7589 20.7477 24.6263 20.5116 24.3902C20.2755 24.1541 20.1429 23.8339 20.1429 23.5ZM21.4018 31.0536C21.0679 31.0536 20.7477 31.1862 20.5116 31.4223C20.2755 31.6584 20.1429 31.9786 20.1429 32.3125C20.1429 32.6464 20.2755 32.9666 20.5116 33.2027C20.7477 33.4388 21.0679 33.5714 21.4018 33.5714H32.3125C32.6464 33.5714 32.9666 33.4388 33.2027 33.2027C33.4388 32.9666 33.5714 32.6464 33.5714 32.3125C33.5714 31.9786 33.4388 31.6584 33.2027 31.4223C32.9666 31.1862 32.6464 31.0536 32.3125 31.0536H21.4018ZM43.2736 33.2021L33.2022 43.2736C32.9661 43.5093 32.6461 43.6418 32.3125 43.6418C31.9789 43.6418 31.6589 43.5093 31.4229 43.2736L26.3905 38.2412C26.1681 38.0026 26.0471 37.6869 26.0528 37.3608C26.0586 37.0346 26.1907 36.7234 26.4214 36.4928C26.652 36.2621 26.9632 36.13 27.2893 36.1242C27.6155 36.1185 27.9311 36.2396 28.1698 36.4619L32.3125 40.603L41.4943 31.4212C41.6105 31.301 41.7494 31.2052 41.9031 31.1392C42.0567 31.0733 42.2219 31.0387 42.3891 31.0373C42.5562 31.0359 42.722 31.0679 42.8767 31.1313C43.0314 31.1946 43.1719 31.2882 43.29 31.4064C43.4082 31.5247 43.5016 31.6653 43.5648 31.82C43.628 31.9748 43.6598 32.1406 43.6583 32.3077C43.6568 32.4749 43.6219 32.6401 43.5559 32.7936C43.4898 32.9472 43.3939 33.0861 43.2736 33.2021Z" fill="#7B5E5E"/>
</svg>
